<svg width="160" height="58" viewBox="0 0 160 58" fill="none" xmlns="http://www.w3.org/2000/svg">
<g clip-path="url(#clip0_3_10)">
<path d="M42.5185 54.2247V27.3254C42.5185 26.5992 42.7407 25.9026 43.1407 25.2949L48.1333 17.9587C48.4148 17.5438 49.0815 17.7364 49.0815 18.2552V54.2247C49.0815 56.0329 47.6148 57.5001 45.8074 57.5001C43.9852 57.5001 42.5185 56.0329 42.5185 54.2247Z" fill="black"/>
<path d="M95.363 14.2091L80.7704 36.5141L66.9333 14.2832C65.9704 12.7271 63.9111 12.2676 62.3852 13.2606L62.3407 13.2903C60.8444 14.2684 60.4 16.2544 61.3481 17.7661L77.4963 43.5243V54.2099C77.4963 56.018 78.963 57.4853 80.7704 57.4853C82.5778 57.4853 84.0444 56.018 84.0444 54.2099V43.5243L100.83 17.7661C101.807 16.2544 101.393 14.2388 99.8815 13.2458C98.3852 12.2676 96.3556 12.6974 95.363 14.2091Z" fill="black"/>
<path d="M3.31852 57.4556C5.11111 57.426 6.54815 55.9736 6.54815 54.1803V23.2201V15.128C6.54815 13.3199 5.08148 11.8527 3.27407 11.8527C1.46667 11.8527 0 13.3199 0 15.128V54.1803C0 56.0032 1.4963 57.4853 3.31852 57.4556Z" fill="black"/>
<path d="M52.9778 2.04138C53.6741 3.15293 53.6444 4.56088 52.9185 5.64279L28.7556 41.1529C27.8074 42.5461 26.237 43.376 24.5481 43.376C22.8741 43.376 21.2889 42.5461 20.3407 41.1529L9.6 25.3097C9.11111 24.5835 8.84444 23.7387 8.85926 22.8643C8.85926 20.4337 8.88889 17.855 8.9037 15.7949C8.9037 14.8464 10.1481 14.4759 10.6667 15.2614C14.7556 21.4119 24.6667 36.2918 24.6667 36.2918L47.4815 1.96728C48.7852 -0.0186786 51.7037 0.0257831 52.9778 2.04138Z" fill="url(#paint0_linear_3_10)"/>
<path d="M113.837 57.4704C113.511 57.4704 113.289 57.3221 113.17 57.0109L103.985 36.4696C103.852 36.1583 103.867 35.9064 104.044 35.7137C104.222 35.5211 104.43 35.4321 104.652 35.4321C104.978 35.4321 105.2 35.5803 105.319 35.8916L114.207 55.7956H113.689L122.578 35.8916C122.696 35.5952 122.919 35.4321 123.244 35.4321C123.511 35.4321 123.719 35.5211 123.881 35.7137C124.044 35.9064 124.044 36.1583 123.911 36.4696L114.726 57.0109C114.607 57.3073 114.385 57.4704 114.059 57.4704H113.837Z" fill="black"/>
<path d="M124.459 57.3963C124.03 57.1888 123.896 56.8628 124.074 56.4181L132.815 35.9805C132.948 35.61 133.23 35.4174 133.644 35.4174H133.748C134.133 35.4174 134.415 35.61 134.578 35.9805L143.274 56.4181C143.467 56.8628 143.348 57.1888 142.889 57.3963C142.444 57.589 142.133 57.4556 141.956 57.011L139.496 51.2309H127.911L125.422 57.011C125.244 57.4556 124.919 57.5741 124.459 57.3963ZM128.548 49.7637H138.889L133.748 37.7146L128.548 49.7637Z" fill="black"/>
<path d="M150.919 57.5C150.711 57.5 150.533 57.4259 150.4 57.2925C150.267 57.1591 150.193 56.9813 150.193 56.7738V36.8401H142.563C142.356 36.8401 142.178 36.766 142.044 36.6326C141.911 36.4992 141.837 36.3214 141.837 36.1139C141.837 35.9064 141.911 35.7286 142.044 35.5952C142.178 35.4618 142.356 35.3877 142.563 35.3877H159.274C159.481 35.3877 159.659 35.4618 159.793 35.5952C159.926 35.7286 160 35.9064 160 36.1139C160 36.3214 159.926 36.4992 159.793 36.6326C159.659 36.766 159.481 36.8401 159.274 36.8401H151.644V56.759C151.644 56.9665 151.57 57.1443 151.437 57.2777C151.304 57.4111 151.126 57.5 150.919 57.5Z" fill="black"/>
</g>
<defs>
<linearGradient id="paint0_linear_3_10" x1="53.5766" y1="2.8398" x2="15.211" y2="31.0461" gradientUnits="userSpaceOnUse">
<stop stop-color="#0090FF"/>
<stop offset="1" stop-color="#0031FF"/>
</linearGradient>
<clipPath id="clip0_3_10">
<rect width="160" height="57" fill="white" transform="translate(0 0.5)"/>
</clipPath>
</defs>
</svg>
