<svg preserveAspectRatio="none" width="100%" height="100%" overflow="visible" style="display: block;" viewBox="0 0 483 165" fill="none" xmlns="http://www.w3.org/2000/svg">
<g id="Group">
<path id="Vector" d="M7.04464 157.703C21.254 144.225 35.4633 130.746 49.6707 130.746C63.88 130.746 78.0893 147.69 92.2987 147.69C106.506 147.69 120.715 122.018 134.925 111.492C149.134 100.967 163.341 84.5371 177.551 84.5371C191.76 84.5371 205.969 107.642 220.177 107.642C234.386 107.642 248.595 78.119 262.805 69.134C277.012 60.1477 291.222 53.7296 305.431 53.7296C319.64 53.7296 333.848 80.686 348.057 80.686C362.266 80.686 376.476 54.3724 390.683 46.0288C404.892 37.6852 419.102 37.0438 433.311 30.6257C447.518 24.2077 461.728 15.8641 475.937 7.5205" stroke="var(--stroke-0, #3B82F6)" stroke-width="2.83544"/>
<g id="Group_2">
<path id="Vector_2" d="M7.04443 162.849C10.152 162.849 12.6711 160.331 12.6711 157.224C12.6711 154.118 10.152 151.599 7.04443 151.599C3.93688 151.599 1.41772 154.118 1.41772 157.224C1.41772 160.331 3.93688 162.849 7.04443 162.849Z" fill="var(--fill-0, white)" stroke="var(--stroke-0, #3B82F6)" stroke-width="2.83544"/>
<path id="Vector_3" d="M49.671 135.894C52.7785 135.894 55.2977 133.375 55.2977 130.269C55.2977 127.162 52.7785 124.644 49.671 124.644C46.5634 124.644 44.0443 127.162 44.0443 130.269C44.0443 133.375 46.5634 135.894 49.671 135.894Z" fill="var(--fill-0, white)" stroke="var(--stroke-0, #3B82F6)" stroke-width="2.83544"/>
<path id="Vector_4" d="M92.2976 152.837C95.4051 152.837 97.9243 150.319 97.9243 147.212C97.9243 144.106 95.4051 141.587 92.2976 141.587C89.19 141.587 86.6709 144.106 86.6709 147.212C86.6709 150.319 89.19 152.837 92.2976 152.837Z" fill="var(--fill-0, white)" stroke="var(--stroke-0, #3B82F6)" stroke-width="2.83544"/>
<path id="Vector_5" d="M134.924 116.64C138.032 116.64 140.551 114.121 140.551 111.015C140.551 107.908 138.032 105.39 134.924 105.39C131.817 105.39 129.297 107.908 129.297 111.015C129.297 114.121 131.817 116.64 134.924 116.64Z" fill="var(--fill-0, white)" stroke="var(--stroke-0, #3B82F6)" stroke-width="2.83544"/>
<path id="Vector_6" d="M177.551 89.684C180.658 89.684 183.177 87.1656 183.177 84.059C183.177 80.9524 180.658 78.434 177.551 78.434C174.443 78.434 171.924 80.9524 171.924 84.059C171.924 87.1656 174.443 89.684 177.551 89.684Z" fill="var(--fill-0, white)" stroke="var(--stroke-0, #3B82F6)" stroke-width="2.83544"/>
<path id="Vector_7" d="M220.177 112.789C223.285 112.789 225.804 110.27 225.804 107.164C225.804 104.057 223.285 101.539 220.177 101.539C217.07 101.539 214.551 104.057 214.551 107.164C214.551 110.27 217.07 112.789 220.177 112.789Z" fill="var(--fill-0, white)" stroke="var(--stroke-0, #3B82F6)" stroke-width="2.83544"/>
<path id="Vector_8" d="M262.804 74.2806C265.911 74.2806 268.431 71.7622 268.431 68.6556C268.431 65.549 265.911 63.0306 262.804 63.0306C259.696 63.0306 257.177 65.549 257.177 68.6556C257.177 71.7622 259.696 74.2806 262.804 74.2806Z" fill="var(--fill-0, white)" stroke="var(--stroke-0, #3B82F6)" stroke-width="2.83544"/>
<path id="Vector_9" d="M305.43 58.8774C308.538 58.8774 311.057 56.359 311.057 53.2524C311.057 50.1458 308.538 47.6274 305.43 47.6274C302.323 47.6274 299.804 50.1458 299.804 53.2524C299.804 56.359 302.323 58.8774 305.43 58.8774Z" fill="var(--fill-0, white)" stroke="var(--stroke-0, #3B82F6)" stroke-width="2.83544"/>
<path id="Vector_10" d="M348.057 85.8331C351.165 85.8331 353.684 83.3147 353.684 80.2081C353.684 77.1015 351.165 74.5831 348.057 74.5831C344.949 74.5831 342.43 77.1015 342.43 80.2081C342.43 83.3147 344.949 85.8331 348.057 85.8331Z" fill="var(--fill-0, white)" stroke="var(--stroke-0, #3B82F6)" stroke-width="2.83544"/>
<path id="Vector_11" d="M390.684 51.1758C393.791 51.1758 396.31 48.6574 396.31 45.5508C396.31 42.4442 393.791 39.9258 390.684 39.9258C387.576 39.9258 385.057 42.4442 385.057 45.5508C385.057 48.6574 387.576 51.1758 390.684 51.1758Z" fill="var(--fill-0, white)" stroke="var(--stroke-0, #3B82F6)" stroke-width="2.83544"/>
<path id="Vector_12" d="M433.31 35.7726C436.418 35.7726 438.937 33.2542 438.937 30.1476C438.937 27.041 436.418 24.5226 433.31 24.5226C430.202 24.5226 427.683 27.041 427.683 30.1476C427.683 33.2542 430.202 35.7726 433.31 35.7726Z" fill="var(--fill-0, white)" stroke="var(--stroke-0, #3B82F6)" stroke-width="2.83544"/>
<path id="Vector_13" d="M475.937 12.6677C479.045 12.6677 481.564 10.1493 481.564 7.04272C481.564 3.93612 479.045 1.41772 475.937 1.41772C472.829 1.41772 470.31 3.93612 470.31 7.04272C470.31 10.1493 472.829 12.6677 475.937 12.6677Z" fill="var(--fill-0, white)" stroke="var(--stroke-0, #3B82F6)" stroke-width="2.83544"/>
</g>
</g>
</svg>
