<svg preserveAspectRatio="none" width="100%" height="100%" overflow="visible" style="display: block;" viewBox="0 0 483 130" fill="none" xmlns="http://www.w3.org/2000/svg">
<g id="Group">
<path id="Vector" d="M7.04448 123.044C21.2538 113.418 35.4631 103.79 49.6705 103.79C63.8799 103.79 78.0892 113.802 92.2985 113.802C106.506 113.802 120.715 94.1638 134.925 86.0773C149.134 77.9908 163.341 65.2819 177.551 65.2819C191.76 65.2819 205.969 84.536 220.177 84.536C234.386 84.536 248.595 62.0736 262.805 53.73C277.012 45.3864 291.221 34.4758 305.431 34.4758C319.64 34.4758 333.847 61.4322 348.057 61.4322C362.266 61.4322 376.475 37.6855 390.683 30.6247C404.892 23.5653 419.101 22.9239 433.311 19.0728C447.518 15.2217 461.728 11.3706 475.937 7.52084" stroke="var(--stroke-0, #10B981)" stroke-width="2.83544"/>
<g id="Group_2">
<path id="Vector_2" d="M7.04443 128.192C10.152 128.192 12.6711 125.674 12.6711 122.567C12.6711 119.46 10.152 116.942 7.04443 116.942C3.93688 116.942 1.41772 119.46 1.41772 122.567C1.41772 125.674 3.93688 128.192 7.04443 128.192Z" fill="var(--fill-0, white)" stroke="var(--stroke-0, #10B981)" stroke-width="2.83544"/>
<path id="Vector_3" d="M49.671 108.938C52.7786 108.938 55.2977 106.42 55.2977 103.313C55.2977 100.206 52.7786 97.688 49.671 97.688C46.5635 97.688 44.0443 100.206 44.0443 103.313C44.0443 106.42 46.5635 108.938 49.671 108.938Z" fill="var(--fill-0, white)" stroke="var(--stroke-0, #10B981)" stroke-width="2.83544"/>
<path id="Vector_4" d="M92.2975 118.95C95.4051 118.95 97.9243 116.432 97.9243 113.325C97.9243 110.218 95.4051 107.7 92.2975 107.7C89.19 107.7 86.6708 110.218 86.6708 113.325C86.6708 116.432 89.19 118.95 92.2975 118.95Z" fill="var(--fill-0, white)" stroke="var(--stroke-0, #10B981)" stroke-width="2.83544"/>
<path id="Vector_5" d="M134.924 91.2244C138.032 91.2244 140.551 88.706 140.551 85.5994C140.551 82.4928 138.032 79.9744 134.924 79.9744C131.817 79.9744 129.297 82.4928 129.297 85.5994C129.297 88.706 131.817 91.2244 134.924 91.2244Z" fill="var(--fill-0, white)" stroke="var(--stroke-0, #10B981)" stroke-width="2.83544"/>
<path id="Vector_6" d="M177.551 70.4298C180.658 70.4298 183.177 67.9114 183.177 64.8048C183.177 61.6982 180.658 59.1798 177.551 59.1798C174.443 59.1798 171.924 61.6982 171.924 64.8048C171.924 67.9114 174.443 70.4298 177.551 70.4298Z" fill="var(--fill-0, white)" stroke="var(--stroke-0, #10B981)" stroke-width="2.83544"/>
<path id="Vector_7" d="M220.177 89.684C223.285 89.684 225.804 87.1656 225.804 84.059C225.804 80.9524 223.285 78.434 220.177 78.434C217.07 78.434 214.551 80.9524 214.551 84.059C214.551 87.1656 217.07 89.684 220.177 89.684Z" fill="var(--fill-0, white)" stroke="var(--stroke-0, #10B981)" stroke-width="2.83544"/>
<path id="Vector_8" d="M262.804 58.8774C265.911 58.8774 268.431 56.359 268.431 53.2524C268.431 50.1458 265.911 47.6274 262.804 47.6274C259.696 47.6274 257.177 50.1458 257.177 53.2524C257.177 56.359 259.696 58.8774 262.804 58.8774Z" fill="var(--fill-0, white)" stroke="var(--stroke-0, #10B981)" stroke-width="2.83544"/>
<path id="Vector_9" d="M305.43 39.6234C308.538 39.6234 311.057 37.105 311.057 33.9984C311.057 30.8918 308.538 28.3734 305.43 28.3734C302.323 28.3734 299.804 30.8918 299.804 33.9984C299.804 37.105 302.323 39.6234 305.43 39.6234Z" fill="var(--fill-0, white)" stroke="var(--stroke-0, #10B981)" stroke-width="2.83544"/>
<path id="Vector_10" d="M348.057 66.5791C351.164 66.5791 353.684 64.0607 353.684 60.9541C353.684 57.8475 351.164 55.3291 348.057 55.3291C344.949 55.3291 342.43 57.8475 342.43 60.9541C342.43 64.0607 344.949 66.5791 348.057 66.5791Z" fill="var(--fill-0, white)" stroke="var(--stroke-0, #10B981)" stroke-width="2.83544"/>
<path id="Vector_11" d="M390.684 35.7726C393.791 35.7726 396.31 33.2542 396.31 30.1476C396.31 27.041 393.791 24.5226 390.684 24.5226C387.576 24.5226 385.057 27.041 385.057 30.1476C385.057 33.2542 387.576 35.7726 390.684 35.7726Z" fill="var(--fill-0, white)" stroke="var(--stroke-0, #10B981)" stroke-width="2.83544"/>
<path id="Vector_12" d="M433.31 24.2201C436.418 24.2201 438.937 21.7017 438.937 18.5951C438.937 15.4885 436.418 12.9701 433.31 12.9701C430.202 12.9701 427.683 15.4885 427.683 18.5951C427.683 21.7017 430.202 24.2201 433.31 24.2201Z" fill="var(--fill-0, white)" stroke="var(--stroke-0, #10B981)" stroke-width="2.83544"/>
<path id="Vector_13" d="M475.937 12.6677C479.045 12.6677 481.564 10.1493 481.564 7.04272C481.564 3.93612 479.045 1.41772 475.937 1.41772C472.83 1.41772 470.31 3.93612 470.31 7.04272C470.31 10.1493 472.83 12.6677 475.937 12.6677Z" fill="var(--fill-0, white)" stroke="var(--stroke-0, #10B981)" stroke-width="2.83544"/>
</g>
</g>
</svg>
