<svg preserveAspectRatio="none" width="100%" height="100%" overflow="visible" style="display: block;" viewBox="0 0 34 36" fill="none" xmlns="http://www.w3.org/2000/svg">
<g id="Group">
<g id="Vector">
</g>
<path id="Vector_2" d="M19.0549 1.25L33.4449 26.1733C33.6644 26.5534 33.7799 26.9845 33.7799 27.4233C33.7799 27.8622 33.6644 28.2933 33.445 28.6733C33.2255 29.0534 32.91 29.3689 32.5299 29.5884C32.1499 29.8078 31.7188 29.9233 31.2799 29.9233H2.49994C2.0611 29.9233 1.63 29.8078 1.24996 29.5884C0.86992 29.3689 0.554334 29.0534 0.334921 28.6733C0.115507 28.2933 -2.78708e-06 27.8622 0 27.4233C2.78718e-06 26.9845 0.115518 26.5534 0.334936 26.1733L14.7249 1.25C15.6866 -0.416667 18.0916 -0.416667 19.0549 1.25ZM16.8899 21.0033C16.4479 21.0033 16.024 21.1789 15.7114 21.4915C15.3989 21.804 15.2233 22.228 15.2233 22.67C15.2233 23.112 15.3989 23.536 15.7114 23.8485C16.024 24.1611 16.4479 24.3367 16.8899 24.3367C17.332 24.3367 17.7559 24.1611 18.0684 23.8485C18.381 23.536 18.5566 23.112 18.5566 22.67C18.5566 22.228 18.381 21.804 18.0684 21.4915C17.7559 21.1789 17.332 21.0033 16.8899 21.0033ZM16.8899 9.33667C16.4817 9.33672 16.0877 9.48659 15.7826 9.75786C15.4776 10.0291 15.2827 10.4029 15.2349 10.8083L15.2233 11.0033V17.67C15.2237 18.0948 15.3864 18.5034 15.678 18.8123C15.9696 19.1212 16.3682 19.3071 16.7923 19.332C17.2163 19.3568 17.6339 19.2189 17.9597 18.9462C18.2854 18.6736 18.4948 18.2868 18.5449 17.865L18.5566 17.67V11.0033C18.5566 10.5613 18.381 10.1374 18.0684 9.82482C17.7559 9.51226 17.332 9.33667 16.8899 9.33667Z" fill="var(--fill-0, #B91010)"/>
</g>
</svg>
