<svg preserveAspectRatio="none" width="100%" height="100%" overflow="visible" style="display: block;" viewBox="0 0 40 40" fill="none" xmlns="http://www.w3.org/2000/svg">
<g id="entypo:cycle">
<path id="Vector" d="M11.032 28.448C6.508 23.584 6.588 15.96 11.288 11.226C13.1297 9.36213 15.5249 8.14414 18.116 7.754L17.978 3.6C14.3403 4.03732 10.9583 5.69484 8.384 8.302C2.086 14.642 2.01 24.88 8.138 31.364L4.656 34.868L15.676 35.47L15.646 23.802L11.032 28.448ZM24.326 4.53L24.356 16.198L28.97 11.554C33.494 16.422 33.414 24.046 28.714 28.776C26.8723 30.6399 24.4771 31.8579 21.886 32.248L22.024 36.4C25.6612 35.9606 29.0431 34.3042 31.62 31.7C37.916 25.356 37.992 15.118 31.864 8.638L35.346 5.13L24.326 4.53Z" fill="var(--fill-0, #10B981)"/>
</g>
</svg>
