<svg preserveAspectRatio="none" width="100%" height="100%" overflow="visible" style="display: block;" viewBox="0 0 24 24" fill="none" xmlns="http://www.w3.org/2000/svg">
<g id="Group">
<g id="Vector">
</g>
<path id="Vector_2" d="M10.939 20.5613C11.2202 20.8422 11.6015 21 11.999 21C12.3965 21 12.7777 20.8422 13.059 20.5613L18.718 14.9053C18.9994 14.6239 19.1575 14.2423 19.1575 13.8443C19.1575 13.4464 18.9994 13.0647 18.718 12.7833C18.4366 12.5019 18.055 12.3438 17.657 12.3438C17.259 12.3438 16.8774 12.5019 16.596 12.7833L13.499 15.8793V4.34432C13.499 3.9465 13.341 3.56497 13.0597 3.28366C12.7784 3.00236 12.3968 2.84432 11.999 2.84432C11.6012 2.84432 11.2196 3.00236 10.9383 3.28366C10.657 3.56497 10.499 3.9465 10.499 4.34432V15.8793L7.403 12.7833C7.26367 12.644 7.09826 12.5335 6.91621 12.4581C6.73416 12.3827 6.53905 12.3438 6.342 12.3438C6.14495 12.3438 5.94984 12.3827 5.76779 12.4581C5.58574 12.5335 5.42033 12.644 5.281 12.7833C5.14167 12.9227 5.03114 13.0881 4.95574 13.2701C4.88033 13.4522 4.84152 13.6473 4.84152 13.8443C4.84152 14.0414 4.88033 14.2365 4.95574 14.4185C5.03114 14.6006 5.14167 14.766 5.281 14.9053L10.939 20.5613Z" fill="var(--fill-0, #B91010)"/>
</g>
</svg>
