<svg preserveAspectRatio="none" width="100%" height="100%" overflow="visible" style="display: block;" viewBox="0 0 34 37" fill="none" xmlns="http://www.w3.org/2000/svg">
<g id="Group">
<g id="Vector">
</g>
<path id="Vector_2" d="M16.6667 0C25.8717 0 33.3333 7.46167 33.3333 16.6667C33.3333 25.8717 25.8717 33.3333 16.6667 33.3333C7.46167 33.3333 0 25.8717 0 16.6667C0 7.46167 7.46167 0 16.6667 0ZM16.6667 6.66667C16.2246 6.66667 15.8007 6.84226 15.4882 7.15482C15.1756 7.46738 15 7.89131 15 8.33333V16.6667C15.0001 17.1087 15.1758 17.5325 15.4883 17.845L20.4883 22.845C20.8027 23.1486 21.2237 23.3166 21.6607 23.3128C22.0977 23.309 22.5157 23.1337 22.8247 22.8247C23.1337 22.5157 23.309 22.0977 23.3128 21.6607C23.3166 21.2237 23.1486 20.8027 22.845 20.4883L18.3333 15.9767V8.33333C18.3333 7.89131 18.1577 7.46738 17.8452 7.15482C17.5326 6.84226 17.1087 6.66667 16.6667 6.66667Z" fill="var(--fill-0, #EA580C)"/>
</g>
</svg>
