<svg preserveAspectRatio="none" width="100%" height="100%" overflow="visible" style="display: block;" viewBox="0 0 242 242" fill="none" xmlns="http://www.w3.org/2000/svg">
<g id="Group">
<path id="Vector" d="M120.992 217.796V242C87.579 242 57.3346 228.453 35.4471 206.549L52.5591 189.434C70.0986 206.976 94.2853 217.796 120.992 217.796Z" fill="var(--fill-0, #3270FF)"/>
<path id="Vector_2" d="M52.5594 189.434L35.4473 206.548C13.5452 184.658 0 154.395 0 121.007H24.2015C24.2015 147.747 35.0494 171.937 52.5594 189.434Z" fill="var(--fill-0, #3270FF)"/>
<path id="Vector_3" d="M52.5446 52.5511C35.0494 70.0632 24.2015 94.2824 24.2015 121.007H0C0 87.5753 13.5452 57.3419 35.4473 35.437L52.5446 52.5511Z" fill="var(--fill-0, #3270FF)"/>
<path id="Vector_4" d="M120.992 0V24.1897C94.2706 24.1897 70.0838 35.0389 52.5444 52.551L35.4471 35.4369C57.3346 13.5468 87.5643 0 120.992 0Z" fill="var(--fill-0, #3270FF)"/>
<path id="Vector_5" d="M206.553 35.4369L189.441 52.551C171.931 35.0389 147.744 24.1897 120.993 24.1897V0C154.406 0 184.665 13.5468 206.553 35.4369Z" fill="var(--fill-0, #3270FF)"/>
<path id="Vector_6" d="M242 121.007H217.798C217.798 94.2824 206.98 70.0779 189.441 52.5511L206.553 35.437C228.455 57.3419 242 87.5753 242 121.007Z" fill="var(--fill-0, #3270FF)"/>
<path id="Vector_7" d="M189.426 189.434C171.916 206.976 147.729 217.796 120.978 217.796V193.606C141.038 193.606 159.181 185.484 172.328 172.335L189.426 189.434Z" fill="var(--fill-0, #F45D5D)"/>
<path id="Vector_8" d="M206.553 206.549C184.665 228.453 154.406 242 120.993 242V217.796C147.744 217.796 171.916 206.976 189.441 189.434L206.553 206.549Z" fill="var(--fill-0, #EB2F2F)"/>
<path id="Vector_9" d="M242 121.007C242 154.41 228.455 184.673 206.553 206.563L189.441 189.449C206.98 171.952 217.798 147.747 217.798 121.022H242V121.007Z" fill="var(--fill-0, #F3A92C)"/>
<path id="Vector_10" d="M120.993 24.1896V48.394C100.962 48.394 82.8037 56.5162 69.6713 69.665L52.5445 52.5509C70.084 35.0388 94.2707 24.1896 120.993 24.1896Z" fill="var(--fill-0, #6493FF)"/>
<path id="Vector_11" d="M189.426 52.5509L172.328 69.665H172.299C159.152 56.5162 141.008 48.394 120.978 48.394V24.1896C147.729 24.1896 171.916 35.0388 189.426 52.5509Z" fill="var(--fill-0, #6493FF)"/>
<path id="Vector_12" d="M217.799 121.007C217.799 147.732 206.98 171.937 189.441 189.434L172.344 172.335C185.461 159.186 193.597 141.055 193.597 121.007H217.799Z" fill="var(--fill-0, #F6BD5C)"/>
<path id="Vector_13" d="M172.343 172.335C159.196 185.484 141.052 193.606 120.993 193.606V169.401C134.361 169.401 146.462 163.991 155.231 155.221L172.343 172.335Z" fill="var(--fill-0, #FB7D7D)"/>
<path id="Vector_14" d="M120.993 193.606V217.796C94.2856 217.796 70.1136 206.976 52.5742 189.434L69.6714 172.335C82.8039 185.484 100.962 193.606 120.993 193.606Z" fill="var(--fill-0, #6493FF)"/>
<path id="Vector_15" d="M120.993 169.401V193.606C100.962 193.606 82.8038 185.484 69.6714 172.335L86.7834 155.221C95.5236 163.991 107.624 169.401 120.993 169.401Z" fill="var(--fill-0, #91B2FF)"/>
<path id="Vector_16" d="M193.582 121.007C193.582 141.07 185.461 159.201 172.329 172.335L155.217 155.221C163.986 146.479 169.396 134.363 169.396 121.007H193.582Z" fill="var(--fill-0, #F5D296)"/>
<path id="Vector_17" d="M217.799 121.007H193.597C193.597 100.945 185.476 82.799 172.344 69.6796L189.441 52.5656C206.966 70.0629 217.799 94.2821 217.799 121.007Z" fill="var(--fill-0, #6493FF)"/>
<path id="Vector_18" d="M193.582 121.007H169.396C169.396 107.637 163.986 95.5352 155.217 86.7644L172.314 69.6651H172.343C185.461 82.7844 193.582 100.945 193.582 121.007Z" fill="var(--fill-0, #91B2FF)"/>
<path id="Vector_19" d="M172.314 69.6653L155.216 86.7646C146.447 78.0233 134.346 72.584 120.978 72.584V48.3943C141.023 48.3943 159.181 56.5312 172.314 69.6653Z" fill="var(--fill-0, #91B2FF)"/>
<path id="Vector_20" d="M120.993 48.3943V72.584C107.624 72.584 95.5236 78.0233 86.7834 86.7646L69.6714 69.6653C82.8038 56.5312 100.962 48.3943 120.993 48.3943Z" fill="var(--fill-0, #91B2FF)"/>
<path id="Vector_21" d="M69.6565 69.6654C56.5093 82.7847 48.3881 100.945 48.3881 120.993H24.2013C24.2013 94.2678 35.0493 70.0634 52.5445 52.5365L69.6565 69.6654Z" fill="var(--fill-0, #6493FF)"/>
<path id="Vector_22" d="M86.7833 86.7646C78.0136 95.5354 72.6044 107.638 72.6044 121.008H48.3882C48.3882 100.945 56.5094 82.7993 69.6566 69.68L86.7833 86.7646Z" fill="var(--fill-0, #91B2FF)"/>
<path id="Vector_23" d="M69.6565 172.335L52.5592 189.434C35.0493 171.937 24.2013 147.747 24.2013 121.007H48.3881C48.3881 141.055 56.524 159.201 69.6565 172.335Z" fill="var(--fill-0, #6493FF)"/>
<path id="Vector_24" d="M86.7831 155.221L69.6711 172.335C56.5239 159.186 48.4027 141.055 48.4027 121.007H72.6042C72.6042 134.363 78.0134 146.465 86.7831 155.221Z" fill="var(--fill-0, #91B2FF)"/>
</g>
</svg>
