<svg preserveAspectRatio="none" width="100%" height="100%" overflow="visible" style="display: block;" viewBox="0 0 41 41" fill="none" xmlns="http://www.w3.org/2000/svg">
<g id="raphael:dollar">
<path id="Vector" d="M20.231 1.85395C10.0815 1.85395 1.85383 10.0816 1.85383 20.2311C1.85383 30.3807 10.0815 38.6083 20.231 38.6083C30.3806 38.6083 38.6082 30.3807 38.6082 20.2311C38.6082 10.0816 30.3806 1.85395 20.231 1.85395ZM21.8179 30.1948V32.7831H19.3421V30.2239C15.2795 29.6676 13.5005 26.3295 13.5005 26.3295L16.0293 24.2141C16.0293 24.2141 17.644 27.0249 20.5648 27.0249C22.1782 27.0249 23.4022 26.1613 23.4022 24.6857C23.4022 21.2364 14.1087 21.6549 14.1087 15.2556C14.1087 12.4739 16.3088 10.4698 19.3409 9.9956V7.40984H21.8166V9.9956C23.9307 10.2738 26.4343 11.3865 26.4343 13.78V15.616H23.1518V14.7258C23.1518 13.8078 21.9822 13.1959 20.6736 13.1959C19.0045 13.1959 17.7818 14.0304 17.7818 15.1987C17.7818 18.7315 27.0754 17.8692 27.0754 24.5744C27.0754 27.3309 25.0169 29.7207 21.8179 30.1948Z" fill="var(--fill-0, #0131FF)"/>
</g>
</svg>
