<svg preserveAspectRatio="none" width="100%" height="100%" overflow="visible" style="display: block;" viewBox="0 0 24 24" fill="none" xmlns="http://www.w3.org/2000/svg">
<g id="Group">
<g id="Vector">
</g>
<path id="Vector_2" d="M13.06 3.283C12.7787 3.0021 12.3975 2.84432 12 2.84432C11.6025 2.84432 11.2213 3.0021 10.94 3.283L5.281 8.939C4.99961 9.22039 4.84152 9.60205 4.84152 10C4.84152 10.398 4.99961 10.7796 5.281 11.061C5.56239 11.3424 5.94405 11.5005 6.342 11.5005C6.73995 11.5005 7.12161 11.3424 7.403 11.061L10.5 7.965V19.5C10.5 19.8978 10.658 20.2794 10.9393 20.5607C11.2206 20.842 11.6022 21 12 21C12.3978 21 12.7794 20.842 13.0607 20.5607C13.342 20.2794 13.5 19.8978 13.5 19.5V7.965L16.596 11.061C16.7353 11.2003 16.9007 11.3109 17.0828 11.3863C17.2648 11.4617 17.46 11.5005 17.657 11.5005C17.854 11.5005 18.0492 11.4617 18.2312 11.3863C18.4133 11.3109 18.5787 11.2003 18.718 11.061C18.8573 10.9217 18.9679 10.7563 19.0433 10.5742C19.1187 10.3922 19.1575 10.197 19.1575 10C19.1575 9.80295 19.1187 9.60784 19.0433 9.42579C18.9679 9.24374 18.8573 9.07833 18.718 8.939L13.06 3.283Z" fill="var(--fill-0, #0131FF)"/>
</g>
</svg>
