<svg preserveAspectRatio="none" width="100%" height="100%" overflow="visible" style="display: block;" viewBox="0 0 24 24" fill="none" xmlns="http://www.w3.org/2000/svg">
<g id="entypo:cycle">
<path id="Vector" d="M6.6192 17.0688C3.9048 14.1504 3.9528 9.576 6.7728 6.7356C7.8778 5.61728 9.31497 4.88648 10.8696 4.6524L10.7868 2.16C8.60418 2.42239 6.57496 3.41691 5.0304 4.9812C1.2516 8.7852 1.206 14.928 4.8828 18.8184L2.7936 20.9208L9.4056 21.282L9.3876 14.2812L6.6192 17.0688ZM14.5956 2.718L14.6136 9.7188L17.382 6.9324C20.0964 9.8532 20.0484 14.4276 17.2284 17.2656C16.1234 18.3839 14.6862 19.1147 13.1316 19.3488L13.2144 21.84C15.3967 21.5764 17.4258 20.5825 18.972 19.02C22.7496 15.2136 22.7952 9.0708 19.1184 5.1828L21.2076 3.078L14.5956 2.718Z" fill="var(--fill-0, #004DFF)"/>
</g>
</svg>
