<svg preserveAspectRatio="none" width="100%" height="100%" overflow="visible" style="display: block;" viewBox="0 0 24 24" fill="none" xmlns="http://www.w3.org/2000/svg">
<g id="Group">
<g id="Vector">
</g>
<path id="Vector_2" d="M13.0603 3.28341C12.779 3.00251 12.3978 2.84473 12.0003 2.84473C11.6028 2.84473 11.2215 3.00251 10.9403 3.28341L5.28128 8.93941C4.99988 9.2208 4.8418 9.60245 4.8418 10.0004C4.8418 10.3984 4.99988 10.78 5.28128 11.0614C5.56267 11.3428 5.94433 11.5009 6.34228 11.5009C6.74023 11.5009 7.12188 11.3428 7.40328 11.0614L10.5003 7.96541V19.5004C10.5003 19.8982 10.6583 20.2798 10.9396 20.5611C11.2209 20.8424 11.6025 21.0004 12.0003 21.0004C12.3981 21.0004 12.7796 20.8424 13.0609 20.5611C13.3422 20.2798 13.5003 19.8982 13.5003 19.5004V7.96541L16.5963 11.0614C16.7356 11.2007 16.901 11.3113 17.0831 11.3867C17.2651 11.4621 17.4602 11.5009 17.6573 11.5009C17.8543 11.5009 18.0494 11.4621 18.2315 11.3867C18.4135 11.3113 18.5789 11.2007 18.7183 11.0614C18.8576 10.9221 18.9681 10.7567 19.0435 10.5746C19.1189 10.3926 19.1578 10.1975 19.1578 10.0004C19.1578 9.80336 19.1189 9.60824 19.0435 9.4262C18.9681 9.24415 18.8576 9.07874 18.7183 8.93941L13.0603 3.28341Z" fill="var(--fill-0, #004DFF)"/>
</g>
</svg>
