<svg preserveAspectRatio="none" width="100%" height="100%" overflow="visible" style="display: block;" viewBox="0 0 471 119" fill="none" xmlns="http://www.w3.org/2000/svg">
<path id="Vector" d="M0.795167 116.892C15.0045 107.265 29.2138 97.6377 43.4212 97.6377C57.6305 97.6377 71.8399 107.65 86.0492 107.65C100.257 107.65 114.466 88.0113 128.675 79.9248C142.885 71.8384 157.092 59.1294 171.301 59.1294C185.511 59.1294 199.72 78.3836 213.927 78.3836C228.137 78.3836 242.346 55.9211 256.555 47.5775C270.763 39.2339 284.972 28.3234 299.181 28.3234C313.391 28.3234 327.598 55.2797 341.807 55.2797C356.017 55.2797 370.226 31.5331 384.434 24.4723C398.643 17.4128 412.852 16.7714 427.061 12.9203C441.269 9.06922 455.478 5.21812 469.688 1.36839" stroke="var(--stroke-0, #10B981)" stroke-width="2.83544"/>
</svg>
