<svg preserveAspectRatio="none" width="100%" height="100%" overflow="visible" style="display: block;" viewBox="0 0 21 22" fill="none" xmlns="http://www.w3.org/2000/svg">
<g id="Group">
<g id="Vector">
</g>
<path id="Vector_2" d="M11.433 0.75L20.067 15.704C20.1986 15.932 20.2679 16.1907 20.2679 16.454C20.2679 16.7173 20.1986 16.976 20.067 17.204C19.9353 17.432 19.746 17.6214 19.518 17.753C19.2899 17.8847 19.0313 17.954 18.768 17.954H1.49996C1.23666 17.954 0.977999 17.8847 0.749975 17.753C0.521952 17.6214 0.3326 17.432 0.200952 17.204C0.0693043 16.976 -1.67225e-06 16.7173 0 16.454C1.67231e-06 16.1907 0.069311 15.932 0.200962 15.704L8.83496 0.75C9.41196 -0.25 10.855 -0.25 11.433 0.75ZM10.134 12.602C9.86875 12.602 9.61439 12.7074 9.42686 12.8949C9.23932 13.0824 9.13396 13.3368 9.13396 13.602C9.13396 13.8672 9.23932 14.1216 9.42686 14.3091C9.61439 14.4966 9.86875 14.602 10.134 14.602C10.3992 14.602 10.6535 14.4966 10.8411 14.3091C11.0286 14.1216 11.134 13.8672 11.134 13.602C11.134 13.3368 11.0286 13.0824 10.8411 12.8949C10.6535 12.7074 10.3992 12.602 10.134 12.602ZM10.134 5.602C9.88903 5.60203 9.65263 5.69196 9.46959 5.85472C9.28656 6.01747 9.16962 6.24175 9.14096 6.485L9.13396 6.602V10.602C9.13425 10.8569 9.23184 11.102 9.40681 11.2874C9.58178 11.4727 9.82092 11.5842 10.0754 11.5992C10.3298 11.6141 10.5803 11.5313 10.7758 11.3677C10.9712 11.2041 11.0969 10.9721 11.127 10.719L11.134 10.602V6.602C11.134 6.33678 11.0286 6.08243 10.8411 5.89489C10.6535 5.70736 10.3992 5.602 10.134 5.602Z" fill="var(--fill-0, #004DFF)"/>
</g>
</svg>
